<?xml version="1.0" standalone="no"?>
<!DOCTYPE svg PUBLIC "-//W3C//DTD SVG 20010904//EN"
        "http://www.w3.org/TR/2001/REC-SVG-20010904/DTD/svg10.dtd">
<svg version="1.0" xmlns="http://www.w3.org/2000/svg"
     width="1280.000000pt" height="640.000000pt" viewBox="0 0 1280.000000 640.000000"
     preserveAspectRatio="xMidYMid meet">
    <metadata>
        Created by potrace 1.15, written by Peter Selinger 2001-2017
    </metadata>
    <g transform="translate(0.000000,640.000000) scale(0.100000,-0.100000)"
       fill="#ffffff" stroke="none">
        <path d="M4380 5623 c-692 -18 -1083 -36 -1520 -69 -433 -32 -625 -50 -785
-74 -214 -31 -259 -44 -224 -65 6 -5 4 -16 -7 -33 -10 -15 -24 -39 -31 -54
-11 -21 -23 -28 -56 -32 -23 -3 -116 -15 -207 -26 -343 -43 -535 -72 -563 -86
-38 -20 -31 -43 20 -63 23 -9 52 -26 65 -37 13 -12 39 -25 58 -29 70 -13 71
-14 58 -38 -6 -12 -39 -53 -74 -90 -35 -38 -112 -139 -172 -225 -100 -144
-128 -186 -205 -309 l-26 -42 -40 22 -40 22 -23 -22 -22 -23 39 -40 38 -39
-18 -41 c-20 -44 -36 -52 -160 -71 -38 -7 -78 -19 -88 -29 -19 -17 -77 -178
-77 -212 0 -11 5 -28 11 -39 7 -15 5 -45 -10 -117 -41 -200 -52 -289 -71 -597
-6 -88 -20 -202 -30 -254 -11 -52 -20 -112 -20 -134 0 -23 -9 -54 -21 -74 -19
-30 -21 -46 -18 -141 l4 -106 -35 -7 c-19 -3 -51 -13 -70 -21 l-36 -15 -12
-144 -12 -144 88 -88 c105 -106 212 -167 293 -167 60 0 387 -73 654 -145 110
-30 219 -60 241 -66 l41 -11 7 -59 c12 -115 25 -131 90 -109 l34 11 1 87 c3
132 10 156 47 160 31 3 31 3 44 -69 60 -338 302 -650 616 -795 173 -80 383
-115 561 -94 59 7 137 21 173 31 301 83 551 291 692 574 36 71 88 215 88 242
0 11 8 13 28 9 15 -3 56 -8 92 -11 108 -11 100 -1 100 -130 0 -63 4 -116 9
-119 4 -3 16 3 25 13 14 16 17 35 14 100 l-3 81 43 0 c40 0 42 -2 42 -29 l0
-29 373 -6 c204 -3 710 -8 1122 -11 l751 -5 47 30 c26 16 50 37 53 45 9 21
518 22 672 0 120 -16 391 -49 557 -66 61 -7 263 -12 455 -12 l345 0 115 38
115 39 200 4 201 4 12 -59 c13 -63 26 -83 53 -83 13 0 17 15 23 87 3 49 9 113
12 144 l6 57 56 6 c31 4 66 9 79 12 21 6 23 3 23 -27 0 -54 35 -177 78 -276
104 -241 287 -432 527 -548 189 -91 385 -128 571 -106 264 30 478 132 660 315
101 100 172 201 224 319 l35 78 90 -3 90 -3 5 -35 c4 -28 10 -36 38 -44 18 -5
35 -6 38 -3 4 3 9 26 11 50 5 43 7 45 62 67 31 13 95 43 143 67 l88 43 128 0
c71 0 132 4 138 10 16 16 212 29 287 18 64 -9 71 -8 111 16 85 50 166 146 166
197 0 22 -8 30 -47 47 -27 11 -67 25 -90 31 -24 7 -43 14 -43 17 0 3 9 42 20
87 41 170 51 215 66 307 17 101 25 144 44 252 12 61 11 70 -7 105 -17 32 -26
39 -64 46 -24 4 -54 5 -66 2 -29 -7 -29 -1 -2 102 15 58 27 84 40 88 39 13 40
29 9 114 -34 94 -53 133 -85 176 -12 17 -30 50 -39 75 -24 62 -43 80 -83 80
-45 0 -106 32 -173 92 -70 62 -202 127 -365 178 -71 23 -159 52 -195 65 -143
53 -376 117 -650 179 -318 72 -963 183 -1280 221 -473 56 -518 67 -644 153
-351 240 -1340 775 -1622 877 -197 72 -488 145 -697 175 -73 11 -81 14 -116
53 -22 23 -39 46 -39 51 0 5 -6 13 -14 17 -19 11 -185 57 -268 74 -322 68
-1239 108 -1990 88z m1322 -92 c78 -10 145 -34 183 -65 19 -16 19 -16 -15 -11
-19 2 -174 12 -345 21 -457 24 -1286 14 -1955 -25 -430 -25 -1008 -74 -1067
-91 -40 -10 -42 -2 -5 32 72 66 68 65 342 82 140 9 266 18 280 21 27 5 553 30
910 45 278 11 1571 4 1672 -9z m-3594 -3797 c70 -6 73 -7 86 -37 12 -30 11
-35 -18 -72 -46 -60 -148 -180 -156 -183 -21 -8 -120 229 -120 288 0 17 34 18
208 4z m7849 -67 c2 -3 -23 -38 -57 -78 -33 -41 -73 -91 -88 -111 -15 -20 -31
-36 -37 -35 -15 4 -102 186 -109 228 l-6 35 146 -17 c81 -10 148 -20 151 -22z
m-6649 8 c7 -6 -59 -163 -84 -199 l-27 -39 -21 29 c-12 15 -52 73 -89 127
l-68 100 143 -8 c79 -4 144 -8 146 -10z m-909 -207 c28 -12 50 -26 51 -30 0
-5 -29 -56 -65 -114 -36 -59 -65 -110 -65 -115 0 -14 -8 -11 -70 22 -60 32
-170 123 -170 141 0 5 38 56 85 113 l86 103 49 -48 c27 -27 72 -59 99 -72z
m7760 -2 c35 -18 49 -31 44 -39 -73 -116 -123 -204 -123 -214 0 -18 -14 -16
-59 7 -52 26 -193 139 -189 151 2 5 41 56 88 113 l85 104 51 -48 c28 -26 74
-60 103 -74z m-7104 12 c47 -56 85 -105 85 -109 0 -20 -205 -170 -229 -169 -5
1 -140 210 -149 231 -2 4 18 17 43 29 25 12 70 44 98 71 29 26 55 48 59 49 4
0 46 -46 93 -102z m7757 -2 l86 -103 -46 -46 c-77 -75 -202 -146 -202 -115 0
7 -31 60 -69 118 l-69 105 55 30 c31 16 77 49 102 72 25 23 48 42 51 43 3 0
44 -47 92 -104z m198 67 c6 -5 -45 -97 -57 -100 -4 -2 -17 12 -29 30 -11 17
-29 45 -39 61 l-19 29 69 -8 c39 -4 72 -9 75 -12z m-8260 -245 c44 -64 80
-119 80 -121 0 -11 -68 -27 -149 -37 -66 -8 -107 -7 -180 4 -51 8 -97 18 -102
23 -5 5 20 52 57 108 94 141 93 140 158 139 l56 0 80 -116z m7756 -4 c68 -98
79 -121 67 -128 -9 -5 -58 -15 -110 -23 -97 -14 -211 -7 -290 18 l-33 10 42
62 c23 34 60 89 84 122 l42 60 59 -1 58 0 81 -120z"/>
    </g>
</svg>
